<svg width="227" height="30" viewBox="0 0 227 30" fill="none" xmlns="http://www.w3.org/2000/svg">
<path d="M0.46 24V3.21H4.57V20.46H13.9V24H0.46ZM23.5241 24.39C22.0241 24.39 20.6941 24.05 19.5341 23.37C18.3941 22.67 17.5041 21.7 16.8641 20.46C16.2241 19.22 15.9041 17.77 15.9041 16.11C15.9041 14.45 16.2341 13.01 16.8941 11.79C17.5541 10.57 18.4541 9.61 19.5941 8.91C20.7541 8.21 22.0641 7.86 23.5241 7.86C25.0041 7.86 26.3141 8.21 27.4541 8.91C28.6141 9.59 29.5141 10.55 30.1541 11.79C30.7941 13.01 31.1141 14.45 31.1141 16.11C31.1141 17.77 30.7941 19.22 30.1541 20.46C29.5341 21.7 28.6541 22.67 27.5141 23.37C26.3941 24.05 25.0641 24.39 23.5241 24.39ZM23.5241 21.03C24.2841 21.03 24.9241 20.83 25.4441 20.43C25.9841 20.03 26.3941 19.46 26.6741 18.72C26.9741 17.98 27.1241 17.11 27.1241 16.11C27.1241 15.11 26.9741 14.25 26.6741 13.53C26.3941 12.81 25.9841 12.25 25.4441 11.85C24.9241 11.45 24.2841 11.25 23.5241 11.25C22.7641 11.25 22.1141 11.45 21.5741 11.85C21.0341 12.25 20.6241 12.81 20.3441 13.53C20.0641 14.25 19.9241 15.11 19.9241 16.11C19.9241 17.11 20.0641 17.98 20.3441 18.72C20.6241 19.44 21.0341 20.01 21.5741 20.43C22.1141 20.83 22.7641 21.03 23.5241 21.03ZM41.991 24.39C40.131 24.39 38.611 24.03 37.431 23.31C36.251 22.59 35.371 21.61 34.791 20.37C34.231 19.13 33.951 17.72 33.951 16.14C33.951 14.6 34.271 13.21 34.911 11.97C35.551 10.71 36.461 9.71 37.641 8.97C38.821 8.23 40.231 7.86 41.871 7.86C42.711 7.86 43.481 7.94 44.181 8.1C44.901 8.24 45.561 8.44 46.161 8.7L45.321 11.85C44.901 11.69 44.441 11.55 43.941 11.43C43.441 11.31 42.861 11.25 42.201 11.25C40.781 11.25 39.721 11.7 39.021 12.6C38.321 13.48 37.971 14.66 37.971 16.14C37.971 17.14 38.111 18.01 38.391 18.75C38.671 19.47 39.141 20.03 39.801 20.43C40.461 20.81 41.331 21 42.411 21C43.011 21 43.611 20.94 44.211 20.82C44.831 20.7 45.371 20.54 45.831 20.34L46.431 23.58C45.951 23.8 45.321 23.99 44.541 24.15C43.761 24.31 42.911 24.39 41.991 24.39ZM54.3714 24.33C53.0714 24.33 51.9314 24.17 50.9514 23.85C49.9714 23.51 49.2014 22.97 48.6414 22.23C48.1014 21.47 47.8314 20.46 47.8314 19.2C47.8314 18 48.1314 17.04 48.7314 16.32C49.3514 15.6 50.1714 15.09 51.1914 14.79C52.2114 14.47 53.3014 14.31 54.4614 14.31C55.0414 14.31 55.5714 14.34 56.0514 14.4C56.5514 14.46 56.9214 14.53 57.1614 14.61V14.07C57.1614 13.51 57.0614 13.01 56.8614 12.57C56.6814 12.13 56.3514 11.79 55.8714 11.55C55.4114 11.29 54.7714 11.16 53.9514 11.16C53.0914 11.16 52.3114 11.22 51.6114 11.34C50.9114 11.46 50.3314 11.61 49.8714 11.79L49.3614 8.61C49.8414 8.45 50.5314 8.29 51.4314 8.13C52.3514 7.95 53.3314 7.86 54.3714 7.86C56.0314 7.86 57.3414 8.12 58.3014 8.64C59.2614 9.16 59.9414 9.89 60.3414 10.83C60.7414 11.77 60.9414 12.88 60.9414 14.16V23.58C60.3614 23.7 59.5014 23.85 58.3614 24.03C57.2414 24.23 55.9114 24.33 54.3714 24.33ZM54.6714 21.27C55.1914 21.27 55.6714 21.26 56.1114 21.24C56.5514 21.2 56.9014 21.15 57.1614 21.09V17.25C56.9814 17.19 56.6914 17.14 56.2914 17.1C55.9114 17.04 55.5114 17.01 55.0914 17.01C54.5114 17.01 53.9614 17.07 53.4414 17.19C52.9414 17.29 52.5314 17.49 52.2114 17.79C51.8914 18.09 51.7314 18.53 51.7314 19.11C51.7314 19.91 51.9914 20.47 52.5114 20.79C53.0514 21.11 53.7714 21.27 54.6714 21.27ZM70.9605 24.3C69.4405 24.26 68.2605 24.04 67.4205 23.64C66.5805 23.24 65.9905 22.66 65.6505 21.9C65.3305 21.14 65.1705 20.22 65.1705 19.14V1.35L69.1005 0.719999V18.42C69.1005 19.26 69.2505 19.89 69.5505 20.31C69.8505 20.71 70.5105 20.96 71.5305 21.06L70.9605 24.3ZM83.7925 24.39C81.7725 24.39 79.9925 23.97 78.4525 23.13C76.9325 22.27 75.7525 21.04 74.9125 19.44C74.0725 17.82 73.6525 15.87 73.6525 13.59C73.6525 11.27 74.1125 9.31 75.0325 7.71C75.9525 6.09 77.1925 4.86 78.7525 4.02C80.3125 3.16 82.0325 2.73 83.9125 2.73C85.1725 2.73 86.2525 2.83 87.1525 3.03C88.0725 3.23 88.8225 3.45 89.4025 3.69C89.9825 3.93 90.3825 4.13 90.6025 4.29L89.4025 7.59C88.7825 7.23 88.0425 6.93 87.1825 6.69C86.3225 6.43 85.3925 6.3 84.3925 6.3C82.9525 6.3 81.7525 6.59 80.7925 7.17C79.8325 7.75 79.1125 8.58 78.6325 9.66C78.1525 10.74 77.9125 12.05 77.9125 13.59C77.9125 15.03 78.1425 16.31 78.6025 17.43C79.0625 18.53 79.7525 19.38 80.6725 19.98C81.5925 20.58 82.7325 20.88 84.0925 20.88C84.7325 20.88 85.2725 20.86 85.7125 20.82C86.1525 20.78 86.5025 20.73 86.7625 20.67V13.26H90.8725V23.34C90.3525 23.54 89.4825 23.76 88.2625 24C87.0625 24.26 85.5725 24.39 83.7925 24.39ZM95.054 24V9.09C95.774 8.83 96.654 8.58 97.694 8.34C98.754 8.08 99.944 7.95 101.264 7.95C101.604 7.95 102.004 7.98 102.464 8.04C102.924 8.08 103.364 8.14 103.784 8.22C104.224 8.3 104.584 8.4 104.864 8.52L104.204 11.76C103.844 11.66 103.394 11.56 102.854 11.46C102.334 11.36 101.744 11.31 101.084 11.31C100.684 11.31 100.274 11.34 99.854 11.4C99.454 11.46 99.154 11.53 98.954 11.61V24H95.054ZM112.614 24.33C111.314 24.33 110.174 24.17 109.194 23.85C108.214 23.51 107.444 22.97 106.884 22.23C106.344 21.47 106.074 20.46 106.074 19.2C106.074 18 106.374 17.04 106.974 16.32C107.594 15.6 108.414 15.09 109.434 14.79C110.454 14.47 111.544 14.31 112.704 14.31C113.284 14.31 113.814 14.34 114.294 14.4C114.794 14.46 115.164 14.53 115.404 14.61V14.07C115.404 13.51 115.304 13.01 115.104 12.57C114.924 12.13 114.594 11.79 114.114 11.55C113.654 11.29 113.014 11.16 112.194 11.16C111.334 11.16 110.554 11.22 109.854 11.34C109.154 11.46 108.574 11.61 108.114 11.79L107.604 8.61C108.084 8.45 108.774 8.29 109.674 8.13C110.594 7.95 111.574 7.86 112.614 7.86C114.274 7.86 115.584 8.12 116.544 8.64C117.504 9.16 118.184 9.89 118.584 10.83C118.984 11.77 119.184 12.88 119.184 14.16V23.58C118.604 23.7 117.744 23.85 116.604 24.03C115.484 24.23 114.154 24.33 112.614 24.33ZM112.914 21.27C113.434 21.27 113.914 21.26 114.354 21.24C114.794 21.2 115.144 21.15 115.404 21.09V17.25C115.224 17.19 114.934 17.14 114.534 17.1C114.154 17.04 113.754 17.01 113.334 17.01C112.754 17.01 112.204 17.07 111.684 17.19C111.184 17.29 110.774 17.49 110.454 17.79C110.134 18.09 109.974 18.53 109.974 19.11C109.974 19.91 110.234 20.47 110.754 20.79C111.294 21.11 112.014 21.27 112.914 21.27ZM123.443 24V8.82C124.183 8.62 125.113 8.42 126.233 8.22C127.373 8.02 128.553 7.92 129.773 7.92C130.873 7.92 131.773 8.07 132.473 8.37C133.193 8.65 133.783 9.01 134.243 9.45C134.623 9.17 135.063 8.92 135.563 8.7C136.063 8.48 136.603 8.3 137.183 8.16C137.763 8 138.333 7.92 138.893 7.92C140.553 7.92 141.823 8.23 142.703 8.85C143.603 9.45 144.213 10.29 144.533 11.37C144.873 12.45 145.043 13.71 145.043 15.15V24H141.143V15.69C141.143 14.65 141.053 13.81 140.873 13.17C140.713 12.51 140.433 12.03 140.033 11.73C139.633 11.43 139.083 11.28 138.383 11.28C138.083 11.28 137.763 11.32 137.423 11.4C137.103 11.48 136.803 11.59 136.523 11.73C136.243 11.85 136.003 11.97 135.803 12.09C135.963 12.57 136.063 13.08 136.103 13.62C136.163 14.16 136.193 14.73 136.193 15.33V24H132.293V15.69C132.293 14.65 132.203 13.81 132.023 13.17C131.863 12.51 131.583 12.03 131.183 11.73C130.783 11.43 130.223 11.28 129.503 11.28C129.223 11.28 128.943 11.29 128.663 11.31C128.403 11.33 128.163 11.36 127.943 11.4C127.723 11.42 127.523 11.45 127.343 11.49V24H123.443ZM149.312 24V8.82C150.052 8.62 150.982 8.42 152.102 8.22C153.242 8.02 154.422 7.92 155.642 7.92C156.742 7.92 157.642 8.07 158.342 8.37C159.062 8.65 159.652 9.01 160.112 9.45C160.492 9.17 160.932 8.92 161.432 8.7C161.932 8.48 162.472 8.3 163.052 8.16C163.632 8 164.202 7.92 164.762 7.92C166.422 7.92 167.692 8.23 168.572 8.85C169.472 9.45 170.082 10.29 170.402 11.37C170.742 12.45 170.912 13.71 170.912 15.15V24H167.012V15.69C167.012 14.65 166.922 13.81 166.742 13.17C166.582 12.51 166.302 12.03 165.902 11.73C165.502 11.43 164.952 11.28 164.252 11.28C163.952 11.28 163.632 11.32 163.292 11.4C162.972 11.48 162.672 11.59 162.392 11.73C162.112 11.85 161.872 11.97 161.672 12.09C161.832 12.57 161.932 13.08 161.972 13.62C162.032 14.16 162.062 14.73 162.062 15.33V24H158.162V15.69C158.162 14.65 158.072 13.81 157.892 13.17C157.732 12.51 157.452 12.03 157.052 11.73C156.652 11.43 156.092 11.28 155.372 11.28C155.092 11.28 154.812 11.29 154.532 11.31C154.272 11.33 154.032 11.36 153.812 11.4C153.592 11.42 153.392 11.45 153.212 11.49V24H149.312ZM182.561 24.39C180.681 24.39 179.141 24.04 177.941 23.34C176.741 22.62 175.841 21.64 175.241 20.4C174.661 19.16 174.371 17.77 174.371 16.23C174.371 14.37 174.731 12.83 175.451 11.61C176.171 10.37 177.091 9.44 178.211 8.82C179.331 8.18 180.521 7.86 181.781 7.86C183.221 7.86 184.461 8.16 185.501 8.76C186.561 9.36 187.371 10.25 187.931 11.43C188.511 12.61 188.801 14.09 188.801 15.87C188.801 16.09 188.791 16.34 188.771 16.62C188.751 16.9 188.731 17.15 188.711 17.37H178.421C178.501 18.51 178.931 19.4 179.711 20.04C180.511 20.68 181.621 21 183.041 21C183.921 21 184.731 20.92 185.471 20.76C186.231 20.6 186.831 20.42 187.271 20.22L187.841 23.43C187.401 23.65 186.681 23.86 185.681 24.06C184.701 24.28 183.661 24.39 182.561 24.39ZM178.421 14.61H184.991C184.971 13.99 184.841 13.42 184.601 12.9C184.381 12.36 184.041 11.93 183.581 11.61C183.141 11.29 182.551 11.13 181.811 11.13C181.091 11.13 180.491 11.3 180.011 11.64C179.551 11.96 179.191 12.39 178.931 12.93C178.671 13.45 178.501 14.01 178.421 14.61ZM192.466 24V9.09C193.186 8.83 194.066 8.58 195.106 8.34C196.166 8.08 197.356 7.95 198.676 7.95C199.016 7.95 199.416 7.98 199.876 8.04C200.336 8.08 200.776 8.14 201.196 8.22C201.636 8.3 201.996 8.4 202.276 8.52L201.616 11.76C201.256 11.66 200.806 11.56 200.266 11.46C199.746 11.36 199.156 11.31 198.496 11.31C198.096 11.31 197.686 11.34 197.266 11.4C196.866 11.46 196.566 11.53 196.366 11.61V24H192.466ZM210.56 24.3C209.04 24.26 207.86 24.04 207.02 23.64C206.18 23.24 205.59 22.66 205.25 21.9C204.93 21.14 204.77 20.22 204.77 19.14V1.35L208.7 0.719999V18.42C208.7 19.26 208.85 19.89 209.15 20.31C209.45 20.71 210.11 20.96 211.13 21.06L210.56 24.3ZM214.638 29.58C213.978 29.58 213.368 29.51 212.808 29.37C212.268 29.25 211.838 29.12 211.518 28.98L212.208 25.83C212.588 25.97 212.958 26.07 213.318 26.13C213.698 26.21 214.078 26.25 214.458 26.25C215.058 26.25 215.558 26.15 215.958 25.95C216.358 25.77 216.698 25.47 216.978 25.05C217.278 24.65 217.538 24.15 217.758 23.55C217.038 22.15 216.328 20.66 215.628 19.08C214.928 17.48 214.248 15.78 213.588 13.98C212.928 12.16 212.318 10.26 211.758 8.28H215.928C216.128 9.1 216.368 9.99 216.648 10.95C216.928 11.89 217.228 12.86 217.548 13.86C217.888 14.84 218.238 15.81 218.598 16.77C218.958 17.73 219.308 18.62 219.648 19.44C220.068 18.32 220.468 17.13 220.848 15.87C221.228 14.61 221.588 13.33 221.928 12.03C222.288 10.73 222.618 9.48 222.918 8.28H226.938C226.378 10.28 225.798 12.21 225.198 14.07C224.598 15.93 223.958 17.72 223.278 19.44C222.618 21.16 221.918 22.85 221.178 24.51C220.618 25.69 220.048 26.65 219.468 27.39C218.908 28.15 218.248 28.7 217.488 29.04C216.728 29.4 215.778 29.58 214.638 29.58Z" fill="#60C663"/>
</svg>
